<svg xmlns="http://www.w3.org/2000/svg" width="17.947" height="35.895" viewBox="0 0 17.947 35.895">
  <path id="Icon_awesome-battery-full" data-name="Icon awesome-battery-full" d="M30.51,10.339v3.589h1.795v3.589H30.51v3.589H3.589V10.339H30.51m.9-3.589H2.692A2.692,2.692,0,0,0,0,9.442V22.005A2.692,2.692,0,0,0,2.692,24.7H31.408A2.692,2.692,0,0,0,34.1,22.005v-.9h.449a1.346,1.346,0,0,0,1.346-1.346V11.686a1.346,1.346,0,0,0-1.346-1.346H34.1v-.9A2.692,2.692,0,0,0,31.408,6.75Zm-2.692,5.384H5.384v7.179H28.716Z" transform="translate(-6.75 35.895) rotate(-90)" fill="#d57ea6"/>
</svg>
