<?xml version="1.0" encoding="utf-8"?>
<!-- Generator: Adobe Illustrator 24.0.1, SVG Export Plug-In . SVG Version: 6.00 Build 0)  -->
<svg version="1.1" id="Camada_1" xmlns="http://www.w3.org/2000/svg" xmlns:xlink="http://www.w3.org/1999/xlink" x="0px" y="0px"
	 viewBox="0 0 28.1 23.3" style="enable-background:new 0 0 28.1 23.3;" xml:space="preserve">
<style type="text/css">
	.st0{fill:#6633FF;}
</style>
<g>
	<path class="st0" d="M27.1,10.5c-1.3-2.3-3.7-3.7-6.3-3.7h-0.3c-0.8-2.2-2.4-4.1-4.5-5.3c-2.4-1.4-5.3-1.8-8-1.1
		c-5.6,1.5-9,7.2-7.5,12.8c0.4,1.6,1.2,3.1,2.3,4.3c0.5,0.6,1.5,0.7,2.1,0.1c0.6-0.5,0.7-1.5,0.1-2.1c-0.8-0.9-1.3-2-1.6-3.1
		c-1-4,1.4-8.1,5.4-9.2c1.9-0.5,4-0.2,5.7,0.8c1.7,1,3,2.7,3.5,4.6c0.2,0.7,0.8,1.1,1.5,1.1h1.4c1.5,0,2.9,0.8,3.6,2.2
		c0.5,1,0.6,2.1,0.3,3.1c-0.3,1.1-1,1.9-2,2.5c-0.7,0.4-1,1.3-0.6,2c0.3,0.5,0.8,0.8,1.3,0.8c0.2,0,0.5-0.1,0.7-0.2
		c1.7-0.9,2.9-2.4,3.4-4.3C28.2,14.1,28,12.2,27.1,10.5z"/>
	<path class="st0" d="M15.2,10.6c-0.1-0.1-0.3-0.3-0.5-0.3c0,0,0,0,0,0c-0.2-0.1-0.4-0.1-0.5-0.1s-0.4,0-0.5,0.1c0,0,0,0,0,0
		c-0.2,0.1-0.4,0.2-0.5,0.3l-4.5,4.5c-0.6,0.6-0.6,1.5,0,2.1s1.5,0.6,2.1,0l1.9-1.9v6.5c0,0.8,0.7,1.5,1.5,1.5s1.5-0.7,1.5-1.5v-6.5
		l1.9,1.9c0.3,0.3,0.7,0.4,1.1,0.4s0.8-0.1,1.1-0.4c0.6-0.6,0.6-1.5,0-2.1L15.2,10.6z"/>
</g>
</svg>
