<svg xmlns="http://www.w3.org/2000/svg" width="24.588" height="24.588" viewBox="0 0 24.588 24.588">
  <path id="Icon_open-dashboard" data-name="Icon open-dashboard" d="M12.294,0A12.294,12.294,0,1,0,24.588,12.294,12.33,12.33,0,0,0,12.294,0Zm0,3.073a9.22,9.22,0,1,1-9.22,9.22A9.208,9.208,0,0,1,12.294,3.073Zm0,3.073a1.537,1.537,0,1,0,1.537,1.537A1.522,1.522,0,0,0,12.294,6.147ZM7.192,9.22A1.537,1.537,0,0,0,6.608,11.8l2.8,2.8a3.121,3.121,0,0,0-.184.768,3.073,3.073,0,1,0,3.073-3.073,3.121,3.121,0,0,0-.768.184l-2.8-2.8A1.537,1.537,0,0,0,7.376,9.19a1.536,1.536,0,0,0-.184,0Zm9.712,0a1.537,1.537,0,1,0,1.537,1.537A1.522,1.522,0,0,0,16.9,9.22Z" fill="#b7bfd6"/>
</svg>
