<svg xmlns="http://www.w3.org/2000/svg" width="545.501" height="421.92" viewBox="0 0 545.501 421.92">
  <g id="_97_graduation" data-name="#97_graduation" transform="translate(-37.13 -24.056)">
    <path id="Caminho_95" data-name="Caminho 95" d="M578.123,211.135H37.967a.837.837,0,0,1,0-1.675H578.123a.837.837,0,0,1,.837.837A.854.854,0,0,1,578.123,211.135Z" transform="translate(0 125.081)" fill="#d1d3d4"/>
    <rect id="Retângulo_36" data-name="Retângulo 36" width="178.818" height="93.479" transform="translate(56.07 241.9)" fill="#fff"/>
    <path id="Caminho_96" data-name="Caminho 96" d="M227.6,248.793H48.777a.837.837,0,0,1-.837-.837V154.477a.837.837,0,0,1,.837-.837H227.6a.837.837,0,0,1,.837.837v93.546a.837.837,0,0,1-.837.77ZM49.615,247.119H226.758v-91.8H49.615Z" transform="translate(7.293 87.423)" fill="#d1d3d4"/>
    <rect id="Retângulo_37" data-name="Retângulo 37" width="178.818" height="5.66" transform="translate(56.07 241.9)" fill="#fff"/>
    <path id="Caminho_97" data-name="Caminho 97" d="M227.6,160.948H48.777a.837.837,0,0,1-.837-.837v-5.644a.837.837,0,0,1,.837-.837H227.6a.837.837,0,0,1,.837.837v5.644A.837.837,0,0,1,227.6,160.948ZM49.615,159.274H226.758V155.3H49.615Z" transform="translate(7.293 87.416)" fill="#d1d3d4"/>
    <rect id="Retângulo_38" data-name="Retângulo 38" width="38.634" height="110.577" transform="translate(126.171 224.802)" fill="#fff"/>
    <path id="Caminho_98" data-name="Caminho 98" d="M129.255,255.661H90.637a.837.837,0,0,1-.837-.837V144.3a.837.837,0,0,1,.837-.837h38.617a.837.837,0,0,1,.837.837V254.824A.837.837,0,0,1,129.255,255.661Zm-37.78-1.675h36.943V145.135H91.475Z" transform="translate(35.533 80.555)" fill="#d1d3d4"/>
    <rect id="Retângulo_39" data-name="Retângulo 39" width="44.529" height="6.782" transform="translate(123.207 218.019)" fill="#fff"/>
    <path id="Caminho_99" data-name="Caminho 99" d="M133.4,147.793H88.867a.837.837,0,0,1-.837-.837v-6.7a.837.837,0,0,1,.837-.837H133.4a.837.837,0,0,1,.837.837v6.7A.837.837,0,0,1,133.4,147.793ZM89.7,146.119h42.854v-5.024h-42.9Z" transform="translate(34.339 77.829)" fill="#d1d3d4"/>
    <rect id="Retângulo_40" data-name="Retângulo 40" width="17.6" height="21.335" transform="translate(136.671 314.027)" fill="#fff"/>
    <path id="Caminho_100" data-name="Caminho 100" d="M114.525,219.736H96.907a.854.854,0,0,1-.837-.837V197.547a.854.854,0,0,1,.837-.837h17.617a.854.854,0,0,1,.837.837v21.419a.854.854,0,0,1-.837.77Zm-16.746-1.675h15.943V198.385H97.745Z" transform="translate(39.763 116.479)" fill="#d1d3d4"/>
    <rect id="Retângulo_41" data-name="Retângulo 41" width="17.6" height="17.6" transform="translate(136.671 317.778)" fill="#fff"/>
    <path id="Caminho_101" data-name="Caminho 101" d="M114.525,218.225H96.907a.854.854,0,0,1-.837-.837v-17.6a.837.837,0,0,1,.837-.837h17.617a.837.837,0,0,1,.837.837v17.667a.854.854,0,0,1-.837.77Zm-16.746-1.675h15.943V200.708H97.745Z" transform="translate(39.763 117.991)" fill="#d1d3d4"/>
    <rect id="Retângulo_42" data-name="Retângulo 42" width="9.11" height="12.978" transform="translate(68.446 258.395)" fill="#fff"/>
    <path id="Caminho_102" data-name="Caminho 102" d="M65.277,178.136h-9.11a.837.837,0,0,1-.837-.837V164.337a.837.837,0,0,1,.837-.837h9.11a.837.837,0,0,1,.837.837v12.978a.837.837,0,0,1-.837.821ZM57,176.462H64.44v-11.3H57Z" transform="translate(12.278 94.075)" fill="#d1d3d4"/>
    <rect id="Retângulo_43" data-name="Retângulo 43" width="9.11" height="12.978" transform="translate(87.302 258.395)" fill="#fff"/>
    <path id="Caminho_103" data-name="Caminho 103" d="M76.554,178.136H67.427a.854.854,0,0,1-.837-.837V164.337a.837.837,0,0,1,.837-.837h9.127a.837.837,0,0,1,.837.837v12.978a.854.854,0,0,1-.837.821Zm-8.373-1.675H75.65v-11.3H68.265Z" transform="translate(19.875 94.075)" fill="#d1d3d4"/>
    <rect id="Retângulo_44" data-name="Retângulo 44" width="9.11" height="12.978" transform="translate(106.176 258.395)" fill="#fff"/>
    <path id="Caminho_104" data-name="Caminho 104" d="M87.807,178.136H78.7a.837.837,0,0,1-.837-.837V164.337a.837.837,0,0,1,.837-.837h9.11a.837.837,0,0,1,.837.837v12.978a.837.837,0,0,1-.837.821Zm-8.273-1.675H86.97v-11.3H79.535Z" transform="translate(27.478 94.075)" fill="#d1d3d4"/>
    <rect id="Retângulo_45" data-name="Retângulo 45" width="9.11" height="12.978" transform="translate(68.446 276.9)" fill="#fff"/>
    <path id="Caminho_105" data-name="Caminho 105" d="M65.277,189.22h-9.11a.837.837,0,0,1-.837-.837V175.337a.837.837,0,0,1,.837-.837h9.11a.837.837,0,0,1,.837.837v12.978a.837.837,0,0,1-.837.9ZM57,187.545H64.44v-11.3H57Z" transform="translate(12.278 101.496)" fill="#d1d3d4"/>
    <rect id="Retângulo_46" data-name="Retângulo 46" width="9.11" height="12.978" transform="translate(87.302 276.9)" fill="#fff"/>
    <path id="Caminho_106" data-name="Caminho 106" d="M76.554,189.22H67.427a.854.854,0,0,1-.837-.837V175.337a.837.837,0,0,1,.837-.837h9.127a.837.837,0,0,1,.837.837v12.978a.854.854,0,0,1-.837.9Zm-8.373-1.675H75.65v-11.3H68.265Z" transform="translate(19.875 101.496)" fill="#d1d3d4"/>
    <rect id="Retângulo_47" data-name="Retângulo 47" width="9.11" height="12.978" transform="translate(106.176 276.9)" fill="#fff"/>
    <path id="Caminho_107" data-name="Caminho 107" d="M87.807,189.22H78.7a.837.837,0,0,1-.837-.837V175.337a.837.837,0,0,1,.837-.837h9.11a.837.837,0,0,1,.837.837v12.978a.837.837,0,0,1-.837.9Zm-8.273-1.675H86.97v-11.3H79.535Z" transform="translate(27.478 101.496)" fill="#d1d3d4"/>
    <rect id="Retângulo_48" data-name="Retângulo 48" width="9.11" height="12.978" transform="translate(68.446 295.405)" fill="#fff"/>
    <path id="Caminho_108" data-name="Caminho 108" d="M65.277,200.243h-9.11a.837.837,0,0,1-.837-.837V186.427a.837.837,0,0,1,.837-.837h9.11a.837.837,0,0,1,.837.837v12.978A.837.837,0,0,1,65.277,200.243ZM57,198.568H64.44v-11.3H57Z" transform="translate(12.278 108.977)" fill="#d1d3d4"/>
    <rect id="Retângulo_49" data-name="Retângulo 49" width="9.11" height="12.978" transform="translate(87.302 295.405)" fill="#fff"/>
    <path id="Caminho_109" data-name="Caminho 109" d="M76.554,200.243H67.427a.854.854,0,0,1-.837-.837V186.427a.837.837,0,0,1,.837-.837h9.127a.837.837,0,0,1,.837.837v12.978a.854.854,0,0,1-.837.837Zm-8.373-1.675H75.65v-11.3H68.265Z" transform="translate(19.875 108.977)" fill="#d1d3d4"/>
    <rect id="Retângulo_50" data-name="Retângulo 50" width="9.11" height="12.978" transform="translate(106.176 295.405)" fill="#fff"/>
    <path id="Caminho_110" data-name="Caminho 110" d="M87.807,200.243H78.7a.837.837,0,0,1-.837-.837V186.427a.837.837,0,0,1,.837-.837h9.11a.837.837,0,0,1,.837.837v12.978A.837.837,0,0,1,87.807,200.243Zm-8.273-1.675H86.97v-11.3H79.535Z" transform="translate(27.478 108.977)" fill="#d1d3d4"/>
    <rect id="Retângulo_51" data-name="Retângulo 51" width="9.11" height="12.978" transform="translate(175.958 258.395)" fill="#fff"/>
    <path id="Caminho_111" data-name="Caminho 111" d="M129.5,178.136h-9.16a.837.837,0,0,1-.837-.837V164.337a.837.837,0,0,1,.837-.837h9.11a.837.837,0,0,1,.837.837v12.978a.837.837,0,0,1-.787.821Zm-8.273-1.675h7.486v-11.3h-7.435Z" transform="translate(55.57 94.075)" fill="#d1d3d4"/>
    <rect id="Retângulo_52" data-name="Retângulo 52" width="9.11" height="12.978" transform="translate(194.814 258.395)" fill="#fff"/>
    <path id="Caminho_112" data-name="Caminho 112" d="M140.737,178.136h-9.11a.837.837,0,0,1-.837-.837V164.337a.837.837,0,0,1,.837-.837h9.11a.837.837,0,0,1,.837.837v12.978a.837.837,0,0,1-.837.821Zm-8.273-1.675H139.9v-11.3h-7.435Z" transform="translate(63.187 94.075)" fill="#d1d3d4"/>
    <rect id="Retângulo_53" data-name="Retângulo 53" width="9.11" height="12.978" transform="translate(213.671 258.395)" fill="#fff"/>
    <path id="Caminho_113" data-name="Caminho 113" d="M152.014,178.136h-9.127a.854.854,0,0,1-.837-.837V164.337a.837.837,0,0,1,.837-.837h9.127a.837.837,0,0,1,.837.837v12.978a.854.854,0,0,1-.837.821Zm-8.289-1.675h7.452v-11.3h-7.452Z" transform="translate(70.784 94.075)" fill="#d1d3d4"/>
    <rect id="Retângulo_54" data-name="Retângulo 54" width="9.11" height="12.978" transform="translate(175.958 276.9)" fill="#fff"/>
    <path id="Caminho_114" data-name="Caminho 114" d="M129.5,189.22h-9.16a.837.837,0,0,1-.837-.837V175.337a.837.837,0,0,1,.837-.837h9.11a.837.837,0,0,1,.837.837v12.978a.837.837,0,0,1-.787.9Zm-8.273-1.675h7.486v-11.3h-7.435Z" transform="translate(55.57 101.496)" fill="#d1d3d4"/>
    <rect id="Retângulo_55" data-name="Retângulo 55" width="9.11" height="12.978" transform="translate(194.814 276.9)" fill="#fff"/>
    <path id="Caminho_115" data-name="Caminho 115" d="M140.737,189.22h-9.11a.837.837,0,0,1-.837-.837V175.337a.837.837,0,0,1,.837-.837h9.11a.837.837,0,0,1,.837.837v12.978a.837.837,0,0,1-.837.9Zm-8.273-1.675H139.9v-11.3h-7.435Z" transform="translate(63.187 101.496)" fill="#d1d3d4"/>
    <rect id="Retângulo_56" data-name="Retângulo 56" width="9.11" height="12.978" transform="translate(213.671 276.9)" fill="#fff"/>
    <path id="Caminho_116" data-name="Caminho 116" d="M152.014,189.22h-9.127a.854.854,0,0,1-.837-.837V175.337a.837.837,0,0,1,.837-.837h9.127a.837.837,0,0,1,.837.837v12.978a.854.854,0,0,1-.837.9Zm-8.289-1.675h7.452v-11.3h-7.452Z" transform="translate(70.784 101.496)" fill="#d1d3d4"/>
    <rect id="Retângulo_57" data-name="Retângulo 57" width="9.11" height="12.978" transform="translate(175.958 295.405)" fill="#fff"/>
    <path id="Caminho_117" data-name="Caminho 117" d="M129.5,200.243h-9.16a.837.837,0,0,1-.837-.837V186.427a.837.837,0,0,1,.837-.837h9.11a.837.837,0,0,1,.837.837v12.978A.837.837,0,0,1,129.5,200.243Zm-8.273-1.675h7.486v-11.3h-7.435Z" transform="translate(55.57 108.977)" fill="#d1d3d4"/>
    <rect id="Retângulo_58" data-name="Retângulo 58" width="9.11" height="12.978" transform="translate(194.814 295.405)" fill="#fff"/>
    <path id="Caminho_118" data-name="Caminho 118" d="M140.737,200.243h-9.11a.837.837,0,0,1-.837-.837V186.427a.837.837,0,0,1,.837-.837h9.11a.837.837,0,0,1,.837.837v12.978A.837.837,0,0,1,140.737,200.243Zm-8.273-1.675H139.9v-11.3h-7.435Z" transform="translate(63.187 108.977)" fill="#d1d3d4"/>
    <rect id="Retângulo_59" data-name="Retângulo 59" width="9.11" height="12.978" transform="translate(213.671 295.405)" fill="#fff"/>
    <path id="Caminho_119" data-name="Caminho 119" d="M152.014,200.243h-9.127a.854.854,0,0,1-.837-.837V186.427a.837.837,0,0,1,.837-.837h9.127a.837.837,0,0,1,.837.837v12.978a.854.854,0,0,1-.837.837Zm-8.289-1.675h7.452v-11.3h-7.452Z" transform="translate(70.784 108.977)" fill="#d1d3d4"/>
    <path id="Caminho_120" data-name="Caminho 120" d="M187.695,211.345a.821.821,0,0,1-.821-.7,8.758,8.758,0,0,0-13.548-4.89.837.837,0,0,1-.787.167.871.871,0,0,1-.569-.569,10.349,10.349,0,0,0-5.376-6.4,10.466,10.466,0,0,0-8.373-.754.837.837,0,1,1-.569-1.574,12.074,12.074,0,0,1,9.663.854,12.258,12.258,0,0,1,5.828,6.28,10.048,10.048,0,0,1,8.742-.687,9.7,9.7,0,0,1,6.565,7.3.854.854,0,0,1-.687.971Z" transform="translate(80.921 115.995)" fill="#d1d3d4"/>
    <path id="Caminho_121" data-name="Caminho 121" d="M402.267,218.281a.837.837,0,0,1-.821-.77,11.27,11.27,0,0,0-14.586-9.144.821.821,0,0,1-.687,0,.9.9,0,0,1-.435-.553,15.976,15.976,0,0,0-24.416-9.646.854.854,0,0,1-1.155-.234,12.258,12.258,0,0,0-11.589-5.459,8.993,8.993,0,0,0-7.6,9.211.837.837,0,0,1-1.524.553,5.024,5.024,0,0,0-3.349-1.993,7.6,7.6,0,0,0-5.493,1.256c-2.378,1.675-4.036,4.538-5.225,8.976a.854.854,0,0,1-.737.62.871.871,0,0,1-.837-.486,6.012,6.012,0,0,0-3.6-3.031,9.411,9.411,0,0,0-7.034.469c-3.835,1.909-6.3,5.777-8.373,9.646a.837.837,0,0,1-1.139.352.854.854,0,0,1-.335-1.139c2.227-4.12,4.873-8.239,9.127-10.349a11.12,11.12,0,0,1,8.373-.569,7.988,7.988,0,0,1,3.517,2.311,15.273,15.273,0,0,1,5.359-8.172,9.211,9.211,0,0,1,6.7-1.524,7.151,7.151,0,0,1,2.914,1.189,11,11,0,0,1,8.976-8.976,13.883,13.883,0,0,1,12.744,5.526,17.684,17.684,0,0,1,26.074,10.2,12.509,12.509,0,0,1,10.048,1.675,12.326,12.326,0,0,1,5.945,9.227.837.837,0,0,1-.77.9Z" transform="translate(179.524 112.442)" fill="#d1d3d4"/>
    <path id="Caminho_122" data-name="Caminho 122" d="M186.03,318.215a.871.871,0,0,1-.636-.285L94.963,214.822a.843.843,0,1,1,1.273-1.105l90.431,103.108a.821.821,0,0,1,0,1.172.8.8,0,0,1-.636.218Z" transform="translate(38.877 127.757)" fill="#d1d3d4"/>
    <path id="Caminho_123" data-name="Caminho 123" d="M517.649,308.3h-.2L117.929,213.964a.859.859,0,1,1,.385-1.675l399.52,94.3a.842.842,0,1,1-.184,1.675Z" transform="translate(54.06 126.975)" fill="#d1d3d4"/>
    <path id="Caminho_124" data-name="Caminho 124" d="M294.28,72.731S309.2,55.6,316.05,52.753s15.072,10.2,14.285,13.179-29.44,19.979-29.44,19.979Z" transform="translate(173.484 19.087)" fill="#fff"/>
    <path id="Caminho_125" data-name="Caminho 125" d="M301.252,86.944h-.2a.7.7,0,0,1-.469-.4l-6.7-13.163a.787.787,0,0,1,.1-.854c.62-.7,15.072-17.3,22.105-20.1,2.612-1.089,5.593-.285,8.624,2.345,3.835,3.349,7.285,9.328,6.7,11.722-.754,3.031-22.993,16.428-29.775,20.447a.854.854,0,0,1-.385,0Zm-5.727-13.833L301.57,85.1c13.6-8.105,27.782-17.349,28.385-19.108.335-1.34-2.277-6.8-6.213-10.182-1.792-1.541-4.455-3.165-7.034-2.093C310.63,56.231,297.768,70.566,295.524,73.112Z" transform="translate(173.161 18.824)" fill="#231f20"/>
    <path id="Caminho_126" data-name="Caminho 126" d="M168.583,49.819c-3.617-4-7.653-8.239-12.978-9.06-6.163-.938-12.51,3.031-18.421,1.289a19.628,19.628,0,0,1-4.538-2.211c-2.88-1.675-5.861-3.684-7.469-6.7a131.836,131.836,0,0,0,0,15.859c4.371,2.529,9.11,5.158,14.151,4.672a32.6,32.6,0,0,0,6.7-1.842,48.683,48.683,0,0,1,13.3-2.378c4.354-.167,9.395.62,11.722,4.354a4.723,4.723,0,0,0,.553-2.227" transform="translate(59.239 6.128)" fill="#63f"/>
    <path id="Caminho_127" data-name="Caminho 127" d="M149.105,60.813l13.916,13.833s12.51-9.278,12.376-9.294-7.67-13.916-10.651-18.27-15.976-1.842-17.165,1.675S149.105,60.813,149.105,60.813Z" transform="translate(74.312 13.974)" fill="#fff"/>
    <path id="Caminho_128" data-name="Caminho 128" d="M163.328,75.719a.7.7,0,0,1-.536-.218L148.876,61.652a.7.7,0,0,1-.184-.3c-.117-.352-2.8-8.675-1.524-12.459.754-2.294,4.823-3.835,8.507-4.371,1.792-.251,7.77-.8,10.048,2.428s6.2,10.383,8.675,14.8c.938,1.675,1.758,3.132,1.943,3.349a.636.636,0,0,1,.151.3c.151.6.151.6-12.66,10.048a.77.77,0,0,1-.5.268ZM150.082,60.648,163.4,73.927c4.086-3.031,9.679-7.184,11.321-8.373-.335-.569-.854-1.49-1.675-2.981-2.478-4.4-6.6-11.722-8.608-14.687-1.139-1.675-4.488-2.345-8.524-1.775-3.634.519-6.833,1.976-7.285,3.349-.9,2.6.7,8.825,1.457,11.237Z" transform="translate(74.005 13.671)" fill="#231f20"/>
    <path id="Caminho_129" data-name="Caminho 129" d="M232.56,201.747s4.471,8.691,21.4,18.622,45.215,20.983,49.8,26.208,6.9,28.251,6.9,28.251,10.667-10.215,10.952-14.2-5.844-24.969-5.844-24.969L254.18,181.35Z" transform="translate(131.845 106.117)" fill="#fff"/>
    <path id="Caminho_130" data-name="Caminho 130" d="M310.994,275.916a.753.753,0,0,1-.268,0,.787.787,0,0,1-.5-.636c0-.234-2.411-22.859-6.7-27.849-2.428-2.8-12.744-7.7-23.646-12.878-8.675-4.12-18.5-8.792-25.957-13.163-16.931-9.914-21.519-18.555-21.77-18.923a.77.77,0,0,1,.167-.9l21.653-20.481a.77.77,0,0,1,1.038,0L316.6,235.406a.687.687,0,0,1,.234.352c.251.871,6.179,21.168,5.878,25.237s-10.048,13.632-11.2,14.7a.77.77,0,0,1-.519.218ZM233.86,202.232c1.223,1.943,6.565,9.462,20.816,17.8,7.4,4.337,17.2,8.993,25.84,13.1,11.538,5.476,21.519,10.215,24.148,13.28,3.969,4.589,6.28,21.77,6.916,27.112,3.349-3.349,9.411-9.931,9.612-12.61.218-3.115-4.019-18.522-5.761-24.483l-60.907-53.672Z" transform="translate(131.517 105.8)" fill="#231f20"/>
    <path id="Caminho_131" data-name="Caminho 131" d="M281.675,211.94c-.368.938,6.782,20.933,5.409,26.476s-7.419,12.526-7.419,12.526-3.651,7.971-.335,9.026,20.2-19.309,19.158-23.06-5.978-11.2-5.978-11.2l9.6,6.129,1.39-3.667s-7.77-8.742-12.51-11.723A48.382,48.382,0,0,0,281.675,211.94Z" transform="translate(162.46 126.754)" fill="#231f20"/>
    <path id="Caminho_132" data-name="Caminho 132" d="M279.894,261.053a1.407,1.407,0,0,1-.486-.084,2.462,2.462,0,0,1-1.574-1.423c-1.189-2.679,1.172-8.021,1.44-8.608a.687.687,0,0,1,.117-.184s5.945-6.916,7.268-12.225c.888-3.6-2.177-14.218-4-20.565-1.407-4.856-1.557-5.526-1.39-6a.754.754,0,0,1,.921-.435,47.828,47.828,0,0,1,9.478,4.572c4.773,3.014,12.359,11.5,12.677,11.857a.737.737,0,0,1,.134.754l-1.39,3.684a.737.737,0,0,1-1.089.352l-6.8-4.337a43.438,43.438,0,0,1,4.3,8.608c.921,3.349-8.49,15.072-13.732,20.1C282.422,260.383,280.8,261.053,279.894,261.053Zm.687-9.411c-.687,1.541-2.16,5.577-1.407,7.3a1.055,1.055,0,0,0,.67.62c.268.1,1.675-.368,4.907-3.483,6.414-6.179,13.883-16.646,13.4-18.672-1-3.584-5.844-10.919-5.895-11a.737.737,0,0,1,1.022-1.022l8.825,5.644.9-2.411c-1.457-1.675-7.971-8.675-12.057-11.254a47.839,47.839,0,0,0-7.988-3.986c.268,1.022.72,2.612,1.172,4.187,1.993,6.9,5.024,17.333,4.019,21.335C286.71,244.273,281.3,250.854,280.58,251.641Z" transform="translate(162.165 126.457)" fill="#231f20"/>
    <path id="Caminho_133" data-name="Caminho 133" d="M191.18,207.151s27.514,84.988,27.514,88.287-13.749,21.77-13.749,21.77,16.746,1.323,21.988-3.617S237.8,293.5,237.8,293.5L223.97,189.4Z" transform="translate(103.929 111.548)" fill="#fff"/>
    <path id="Caminho_134" data-name="Caminho 134" d="M210.178,318.4c-2.746,0-4.739-.151-5.024-.167a.787.787,0,0,1-.636-.452.753.753,0,0,1,.084-.77c5.258-7.05,13.6-19.074,13.6-21.285,0-2.545-16.462-54.041-27.464-88.053a.754.754,0,0,1,.368-.9l32.823-17.734a.8.8,0,0,1,.7,0,.753.753,0,0,1,.419.586l13.833,104.1a.7.7,0,0,1,0,.368c-.218.62-5.711,15.373-11.053,20.38C224.144,317.8,215.654,318.4,210.178,318.4Zm-3.45-1.675c4.069.184,15.892.352,20-3.5,4.789-4.471,9.964-17.919,10.617-19.627l-13.665-102.79-31.249,16.947c3.617,11.153,27.347,84.67,27.347,87.919s-9.562,16.378-13.045,21.1Z" transform="translate(103.603 111.245)" fill="#231f20"/>
    <path id="Caminho_135" data-name="Caminho 135" d="M234.493,250s-8.943,20.548-13.5,23.093-17.868,1.557-17.868,1.557-8.993,3.718-7.335,6.7,25.689,3.132,31.132-.653a22.825,22.825,0,0,0,7.569-10.55l1.155,11.538,4.438.151s2.813-16.462,1.323-21.4S234.493,250,234.493,250Z" transform="translate(106.903 152.431)" fill="#231f20"/>
    <path id="Caminho_136" data-name="Caminho 136" d="M209.505,284.591a52.085,52.085,0,0,1-10.768-.921c-1.825-.419-2.864-.955-3.349-1.675a2.294,2.294,0,0,1-.134-1.959c.988-2.847,7.134-5.476,7.837-5.761a.6.6,0,0,1,.335,0c.134,0,13.129.955,17.45-1.457,3.567-1.993,10.734-17.1,13.179-22.758a.77.77,0,0,1,.553-.435.737.737,0,0,1,.653.218c.234.218,5.593,5.66,7.1,10.718s-1.172,21.067-1.289,21.77a.737.737,0,0,1-.754.6l-4.455-.151a.737.737,0,0,1-.7-.67l-.871-8.624a21.887,21.887,0,0,1-6.7,8.172C224.711,283.653,216.706,284.591,209.505,284.591Zm-5.928-8.876c-2.411,1.021-6.28,3.165-6.849,4.823a.9.9,0,0,0,0,.754s.3.469,2.311.938c6.6,1.541,23.445,1.172,27.749-1.859a22.206,22.206,0,0,0,7.3-10.148.737.737,0,0,1,1.44.151l1.089,10.885,3.148.117c.486-3.065,2.5-16.261,1.239-20.431a28.754,28.754,0,0,0-6-9.328c-1.892,4.27-9.177,20.1-13.4,22.44C217.208,276.552,205.252,275.815,203.577,275.715Z" transform="translate(106.57 152.171)" fill="#231f20"/>
    <path id="Caminho_137" data-name="Caminho 137" d="M279.9,102.461a18.622,18.622,0,0,1-1.574,15.357,40.979,40.979,0,0,1-22.206,18.421,48.464,48.464,0,0,1-21.62,2.478,41.2,41.2,0,0,1-25.019-12.928,28.469,28.469,0,0,1-7.9-17.266c-.318-6.464,2.73-13.263,8.373-16.378,2.7-1.474,6.179-2.428,7.184-5.342.837-2.445-.586-5.024-.737-7.653-.2-3.517,1.976-6.7,4.438-9.294,5.727-5.978,12.124-8.993,20.682-7.837,7.821,1.038,14.486,6.23,19.761,11.823,2.328,2.462,4.739,5.024,5.56,8.373.4,1.675.385,3.349.837,4.856,1.557,5.627,7.938,8.373,11.086,13.28a13.211,13.211,0,0,1,1.139,2.11Z" transform="translate(110.929 25.446)" fill="#fff"/>
    <path id="Caminho_138" data-name="Caminho 138" d="M240.12,140.182a41.413,41.413,0,0,1-5.426-.335,42.151,42.151,0,0,1-25.4-13.28,29.223,29.223,0,0,1-8.122-17.751,18.572,18.572,0,0,1,8.792-17.081c.62-.335,1.256-.636,1.909-.955,2.194-1.038,4.237-2.01,4.923-3.952a7.938,7.938,0,0,0-.268-4.421,17.2,17.2,0,0,1-.5-2.947c-.184-3.148,1.373-6.481,4.639-9.88,6.33-6.6,13.129-9.16,21.335-8.072,6.8.921,13.4,4.856,20.23,12.074,2.144,2.278,4.84,5.124,5.727,8.675a20.69,20.69,0,0,1,.4,2.411,17.85,17.85,0,0,0,.435,2.428c.854,3.081,3.349,5.275,5.861,7.586a27.5,27.5,0,0,1,5.124,5.493,14.751,14.751,0,0,1,1.206,2.344h0a19.359,19.359,0,0,1-1.675,16.01,41.448,41.448,0,0,1-22.624,18.823,51.914,51.914,0,0,1-16.562,2.83ZM238.278,62.8c-6.23,0-11.455,2.5-16.579,7.837-2.964,3.081-4.388,6.029-4.22,8.742a16.092,16.092,0,0,0,.469,2.679,9.077,9.077,0,0,1,.218,5.258c-.888,2.562-3.349,3.734-5.694,4.856-.636.3-1.256.586-1.842.9a16.914,16.914,0,0,0-8.038,15.658,27.682,27.682,0,0,0,7.7,16.746,40.66,40.66,0,0,0,24.55,12.778A47.845,47.845,0,0,0,256.18,135.9a40.509,40.509,0,0,0,21.77-18.136,17.768,17.768,0,0,0,1.541-14.7,12.959,12.959,0,0,0-1.072-2.093,26.7,26.7,0,0,0-4.856-5.175c-2.629-2.361-5.342-4.806-6.313-8.373a16.747,16.747,0,0,1-.469-2.663,18.722,18.722,0,0,0-.385-2.16c-.787-3.165-3.215-5.727-5.359-8C254.488,67.653,248.175,63.852,241.727,63A24.721,24.721,0,0,0,238.278,62.8Z" transform="translate(110.637 25.103)" fill="#231f20"/>
    <path id="Caminho_139" data-name="Caminho 139" d="M301.215,123.047l90.163-59.534,17.7,31.2-89.61,65.847s-.955,15.993-5.024,56.469c-2.428,24.316,55.263,31,82.359,73.031,0,0-88.337,49.754-149.395,36.105-54.861-12.258-49.234-9.663-58.5-14.285l44.244-97.38s2.512-51.78,1.507-58.026L148.37,75.5,175.265,49.43l80.2,70.452Z" transform="translate(75.047 17.118)" fill="#63f"/>
    <path id="Caminho_140" data-name="Caminho 140" d="M218.928,140.1s-2.345-35.687.285-42.385a15.072,15.072,0,0,1,2.964-5.141,15.34,15.34,0,0,1,6.816-3.349c2.947-.854,6.213-1.574,9.026-.3a9.177,9.177,0,0,1,4.823,6.7,22.508,22.508,0,0,1-.335,8.524C240.3,115.863,218.928,140.1,218.928,140.1Z" transform="translate(121.999 43.293)" fill="#231f20"/>
    <path id="Caminho_141" data-name="Caminho 141" d="M219.227,141.146h-.234a.737.737,0,0,1-.5-.653c-.1-1.457-2.328-35.921.335-42.7a12.46,12.46,0,0,1,10.266-8.976c3.2-.921,6.565-1.675,9.529-.285a9.88,9.88,0,0,1,5.242,7.218,22.892,22.892,0,0,1-.335,8.809c-2.211,11.856-22.876,35.385-23.746,36.373a.737.737,0,0,1-.553.218Zm15.641-51.914a19.509,19.509,0,0,0-5.376.971,11,11,0,0,0-9.294,8.089c-2.211,5.627-.787,32.94-.352,40.191,4.5-5.258,20.38-24.433,22.223-34.3a22.056,22.056,0,0,0,.352-8.239A8.373,8.373,0,0,0,238,89.835,7.419,7.419,0,0,0,234.868,89.232Z" transform="translate(121.7 42.979)" fill="#231f20"/>
    <path id="Caminho_142" data-name="Caminho 142" d="M237,107.93a49.7,49.7,0,0,1,.955,10.751,276.1,276.1,0,0,0,2.88,38.818c1.959,12.895,4.789,27.213,12.644,37.964,17.852,24.433,51.914,19.158,51.914,19.158l11.17-32.739s-21.955,6.4-42.72-4.789a25.439,25.439,0,0,1-9.294-9.864c-7.486-12.677-10.266-28.2-12.945-42.486-.67-3.567-2.294-17.617-4.1-21.1A24.433,24.433,0,0,0,228.93,90.748a.72.72,0,0,0-.536.084.687.687,0,0,0-.218.536l-.586,5.124A15.457,15.457,0,0,1,237,107.93Z" transform="translate(128.492 44.98)" fill="#fff"/>
    <path id="Caminho_143" data-name="Caminho 143" d="M298.053,216.116c-11.27,0-32.187-2.579-44.88-19.928-7.737-10.584-10.718-24.667-12.778-38.3a274.949,274.949,0,0,1-2.9-38.919,49.268,49.268,0,0,0-.921-10.6h0a14.7,14.7,0,0,0-8.993-10.9.8.8,0,0,1-.452-.8l.586-5.024a1.524,1.524,0,0,1,.519-1.055,1.44,1.44,0,0,1,1.089-.234,25,25,0,0,1,19.158,13.3c1.423,2.713,2.679,11.321,3.517,17,.268,1.876.5,3.433.67,4.321l.218,1.156c2.663,14.184,5.409,28.854,12.644,41.079a24.115,24.115,0,0,0,8.993,9.579c20.246,10.9,41.866,4.789,42.134,4.723a.772.772,0,0,1,.938.988l-11.17,32.739a.77.77,0,0,1-.6.5A56.168,56.168,0,0,1,298.053,216.116Zm-59.986-108.1a50.628,50.628,0,0,1,.955,10.935,274.789,274.789,0,0,0,2.964,38.718c2.043,13.4,5.024,27.3,12.51,37.612,16.278,22.273,46.639,19.426,50.725,18.923l10.45-30.981c-5.191,1.172-24.1,4.4-41.866-5.191a26.074,26.074,0,0,1-9.579-10.048c-7.368-12.459-10.148-27.263-12.828-41.581l-.218-1.156c-.167-.9-.4-2.478-.67-4.371-.77-5.258-2.06-14.034-3.349-16.529a23.864,23.864,0,0,0-17.885-12.476l-.519,4.5A16.093,16.093,0,0,1,238.1,108.1Z" transform="translate(128.18 44.708)" fill="#231f20"/>
    <path id="Caminho_144" data-name="Caminho 144" d="M270.12,91.071s-73.684-13.4-123.22,84.067l26.962,20.732s18.421-95.823,96.225-95.019Z" transform="translate(74.056 44.791)" fill="#fff"/>
    <path id="Caminho_145" data-name="Caminho 145" d="M174.187,196.937a.7.7,0,0,1-.469-.168l-27-20.715a.754.754,0,0,1-.218-.955c14.184-27.9,39.672-64.256,80.6-78.943,24.534-8.809,43.256-5.577,43.44-5.543a.77.77,0,0,1,.636.754v9.78a.754.754,0,0,1-.234.536.67.67,0,0,1-.536.218h-.955c-75.543,0-94.333,93.462-94.517,94.416a.787.787,0,0,1-.486.569A.687.687,0,0,1,174.187,196.937Zm-26.024-21.77,25.522,19.61a168.453,168.453,0,0,1,18.756-46.89c13.079-21.77,37.01-47.593,77.034-47.593h.167V91.92c-3.349-.452-20.447-2.194-42.1,5.593-22.189,8.105-53.957,28.067-79.345,77.7Z" transform="translate(73.731 44.494)" fill="#231f20"/>
    <path id="Caminho_146" data-name="Caminho 146" d="M223.279,104.74c-1.675,7.938-7.821,24.768,8,22.239a16.746,16.746,0,0,0,4.722-1.775c9.546-4.773,10.316-10.4,11.555-20.263.536-4.287,2.01-24.215,2.01-24.215s-21.117-16.06-21.117-16.077c-.117-.368-6.062,3.785-7.9,6.112-5.895,7.452-5.443,17.55-5.376,26.593C215.258,105.025,223.279,104.74,223.279,104.74Z" transform="translate(120.093 27.37)" fill="#fff"/>
    <path id="Caminho_147" data-name="Caminho 147" d="M228.621,128.29a8.172,8.172,0,0,1-6.3-2.278c-3.634-3.935-1.675-12.007-.251-17.9.2-.821.385-1.675.553-2.328a9.546,9.546,0,0,1-5.694-2.361,7.7,7.7,0,0,1-2.244-5.761V96.137c-.084-8.574-.167-18.3,5.56-25.538,1.457-1.842,7.486-6.7,8.624-6.414a.687.687,0,0,1,.352.167h0l21.1,16.077a.72.72,0,0,1,.3.653c0,.821-1.474,20.1-2.01,24.249-1.222,9.9-1.976,15.876-11.957,20.866a17.383,17.383,0,0,1-5.024,1.842,20.56,20.56,0,0,1-3.014.251ZM223.6,104.276a.787.787,0,0,1,.754.921c-.2.971-.469,2.077-.754,3.349-1.356,5.56-3.2,13.179-.117,16.512,1.507,1.675,4.2,2.16,7.988,1.541a15.691,15.691,0,0,0,4.522-1.675c9.244-4.622,9.914-10.048,11.136-19.677.486-3.868,1.758-20.883,1.959-23.746C234.5,70.381,230.045,67,228.671,65.876a34.314,34.314,0,0,0-7.2,5.778c-5.409,6.816-5.309,15.842-5.225,24.567v1.524a6.23,6.23,0,0,0,1.809,4.656,8.373,8.373,0,0,0,5.543,1.876Z" transform="translate(119.775 27.064)" fill="#231f20"/>
    <path id="Caminho_148" data-name="Caminho 148" d="M219.16,97.073A15.323,15.323,0,0,0,230.38,95.2a11.069,11.069,0,0,0,5.158-7.787s-7.77,3.232-14.938,1.959Z" transform="translate(122.805 42.741)" fill="#231f20"/>
    <path id="Caminho_149" data-name="Caminho 149" d="M222.905,98.476a17.618,17.618,0,0,1-3.617-.368.737.737,0,0,1-.553-.854l1.44-7.7a.72.72,0,0,1,.854-.586c6.866,1.206,14.452-1.892,14.519-1.926a.666.666,0,0,1,1.022.636,11.723,11.723,0,0,1-5.476,8.373A14.385,14.385,0,0,1,222.905,98.476Zm-2.6-1.675a14.3,14.3,0,0,0,9.931-1.892,11.2,11.2,0,0,0,4.622-6.045,30.713,30.713,0,0,1-13.4,1.675Z" transform="translate(122.51 42.427)" fill="#231f20"/>
    <path id="Caminho_150" data-name="Caminho 150" d="M226.451,86.15c-1.105,0-3.718-.167-4.656-1.675s3.115-6.38,5.711-8.959a.737.737,0,0,1,1.038,0,.754.754,0,0,1,0,1.055c-3.065,3.048-5.61,6.4-5.459,7.167.519.854,2.763,1.022,3.751.955a.77.77,0,0,1,.787.7.754.754,0,0,1-.7.787Z" transform="translate(124.49 34.573)" fill="#231f20"/>
    <path id="Caminho_151" data-name="Caminho 151" d="M226.971,88.186h0c-4.438,0-7.435-4.622-7.553-4.823a.739.739,0,0,1,1.239-.8s2.7,4.136,6.313,4.136h0c2.411,0,4.773-1.775,7.05-5.292a.754.754,0,0,1,1.022-.218.737.737,0,0,1,.218,1.038C232.7,86.176,229.918,88.186,226.971,88.186Z" transform="translate(122.899 38.465)" fill="#231f20"/>
    <path id="Caminho_152" data-name="Caminho 152" d="M232.911,76.163a.737.737,0,0,1-.636-.368c-.335-.569-1.524-2.211-2.562-2.211h0c-.469,0-.938.4-1.39,1.172A.754.754,0,0,1,227.033,74a3.182,3.182,0,0,1,2.679-1.892h0c2.077,0,3.667,2.646,3.852,2.947a.737.737,0,0,1-.268,1,.77.77,0,0,1-.385.1Z" transform="translate(128.078 32.419)" fill="#231f20"/>
    <path id="Caminho_153" data-name="Caminho 153" d="M220.293,75.1a.888.888,0,0,1-.385-.1.754.754,0,0,1-.234-1.022,5.677,5.677,0,0,1,3.567-2.646c1.926-.268,2.83,1.775,3.031,2.88a.72.72,0,0,1-.586.854.754.754,0,0,1-.871-.586s-.368-1.775-1.39-1.675a4.27,4.27,0,0,0-2.5,1.959.72.72,0,0,1-.636.335Z" transform="translate(123.079 31.876)" fill="#231f20"/>
    <path id="Caminho_154" data-name="Caminho 154" d="M201.373,170.832a.77.77,0,0,1-.77-.737l-1.993-61.778a.762.762,0,1,1,1.524-.05l1.993,61.861a.77.77,0,0,1-.737.787Z" transform="translate(108.941 56.315)" fill="#231f20"/>
    <path id="Caminho_155" data-name="Caminho 155" d="M218.449,57.679,215.1,73.236s5.409-3.45,17.3-2.73c14.821.921,25.572,17.617,25.572,17.617l2.763-22.189S242.229,38.872,218.449,57.679Z" transform="translate(120.066 18.197)" fill="#231f20"/>
    <path id="Caminho_156" data-name="Caminho 156" d="M258.3,89.088a.72.72,0,0,1-.62-.335c-.1-.167-10.734-16.395-25-17.282-11.522-.7-16.746,2.579-16.847,2.612a.77.77,0,0,1-.821,0,.72.72,0,0,1-.3-.77l3.349-15.541a.9.9,0,0,1,.268-.435c6.866-5.392,13.983-7.586,21.134-6.5,13.263,2.01,21.921,14.4,22.273,14.921a.787.787,0,0,1,.134.5L259.1,88.468a.737.737,0,0,1-.569.62ZM229.462,69.9q1.557,0,3.349.1c12.426.77,21.888,12.091,25.036,16.361l2.445-20c-1.222-1.675-9.445-12.309-21.117-14.084-6.7-1-13.4,1.022-19.794,6.045l-2.914,13.8a33.108,33.108,0,0,1,13-2.227Z" transform="translate(119.788 17.886)" fill="#231f20"/>
    <path id="Caminho_157" data-name="Caminho 157" d="M227.421,75.215s-21.955-9.864-22.239-10.8c-.452-1.541,34.263-18.421,37.529-19.158s44.227,25.589,44.579,26.526,1.256,2.177-.636,3.55c-1.256.921-26.895,8.256-26.895,8.256L245.072,71.33Z" transform="translate(113.372 14.292)" fill="#231f20"/>
    <path id="Caminho_158" data-name="Caminho 158" d="M260.045,84.6a.8.8,0,0,1-.469-.167L245.091,72.412l-17.232,3.8a.7.7,0,0,1-.452,0c-22.256-10.048-22.524-10.885-22.641-11.254a1.306,1.306,0,0,1,.117-.754c1.675-2.78,35.754-18.89,37.964-19.342.6-.134,2.428-.486,23.9,12.761.218.117,21.017,13.012,21.519,14.2l.117.285a2.914,2.914,0,0,1-1,4.153c-1.306.955-22.825,7.134-27.129,8.373ZM245.359,70.871a.72.72,0,0,1,.469.184l14.452,11.99c9.763-2.8,25.22-7.352,26.309-8.038s.921-1.457.519-2.328v-.218c-2.278-2.127-40.275-26.191-43.792-26.191h0c-2.981.519-32.957,15.156-36.809,18.3,2.478,1.541,13.916,6.833,21.285,10.148l17.333-3.835Z" transform="translate(113.085 14.015)" fill="#231f20"/>
    <path id="Caminho_159" data-name="Caminho 159" d="M163.494,35.418s.72,14.05-4.89,20.464-23.964,18.27-23.964,18.27l11.488,12.342s20.1-17.969,24.349-28.469a85.978,85.978,0,0,0,5.392-21.167S169.389,29.556,163.494,35.418Z" transform="translate(65.784 6.128)" fill="#fff"/>
    <path id="Caminho_160" data-name="Caminho 160" d="M146.434,87.515a.77.77,0,0,1-.569-.251L134.394,74.989a.754.754,0,0,1-.2-.62.8.8,0,0,1,.352-.553c.167-.117,18.321-11.856,23.8-18.12s4.706-19.794,4.689-19.928a.871.871,0,0,1,.234-.586,7.586,7.586,0,0,1,5.811-2.512,12.191,12.191,0,0,1,7.67,3.9.737.737,0,0,1,.2.586A89.11,89.11,0,0,1,171.5,58.527c-4.321,10.534-23.73,28-24.567,28.737A.7.7,0,0,1,146.434,87.515ZM136.135,74.6l10.333,11.069c3.266-2.981,19.828-18.421,23.612-27.665a86.93,86.93,0,0,0,5.292-20.615,10.55,10.55,0,0,0-6.33-3.2,6.3,6.3,0,0,0-4.455,1.842c0,2.294.218,14.586-5.024,20.665C154.456,62.446,139.719,72.259,136.135,74.6Z" transform="translate(65.478 5.81)" fill="#231f20"/>
    <path id="Caminho_161" data-name="Caminho 161" d="M155.993,64.141s-4.388-8.775-10.383-9.679c0,0,6.933-5.225,7.553-11.153,9.646-3.132,10.316,2.445,10.316,6.7C163.478,49.973,159.66,60.775,155.993,64.141Z" transform="translate(73.185 12.371)" fill="#63f"/>
    <path id="Caminho_162" data-name="Caminho 162" d="M133.479,61.355c-.653,2.763,1.44,6.263,3.349,7.955,3.349,2.964,11.522,3.952,12.057-2.328a9.378,9.378,0,0,0-4.153-8.373c-3.6-2.378-9.311-2.244-11.1,2.177Q133.541,61.067,133.479,61.355Z" transform="translate(64.919 22.274)" fill="#fff"/>
    <path id="Caminho_163" data-name="Caminho 163" d="M143.716,72.7a11.438,11.438,0,0,1-7.05-2.5c-2.277-2.01-4.337-5.744-3.617-8.725h0a3.348,3.348,0,0,1,.218-.687,6.431,6.431,0,0,1,4.17-3.835,10.048,10.048,0,0,1,8.055,1.289,10.2,10.2,0,0,1,4.488,9.06,5.325,5.325,0,0,1-3.349,4.823,7.669,7.669,0,0,1-2.914.569Zm-9.194-10.868c-.536,2.294,1.222,5.526,3.148,7.218a9.227,9.227,0,0,0,8.373,1.675,3.852,3.852,0,0,0,2.411-3.416,8.557,8.557,0,0,0-3.8-7.687,8.373,8.373,0,0,0-6.7-1.105,5.024,5.024,0,0,0-3.215,2.847l-.151.469Z" transform="translate(64.612 21.968)" fill="#231f20"/>
    <path id="Caminho_164" data-name="Caminho 164" d="M143.474,70.893a.77.77,0,0,1-.134-1.524A2.746,2.746,0,0,0,145.3,66.74a5.9,5.9,0,0,0-1.557-3.651,10.919,10.919,0,0,0-3.349-2.713,4.371,4.371,0,0,0-1.926-.569h0a1.675,1.675,0,0,0-1.407.636,2.881,2.881,0,0,0-.318,1.072,3.868,3.868,0,0,0,0,2.244,4.2,4.2,0,0,0,2.026,1.675c1.022.536,1.44.5,1.591.435a.959.959,0,0,0,.335-.6,2.662,2.662,0,0,0-.234-1.574,2.763,2.763,0,0,0-1.39-1.574.77.77,0,0,1-.435-.988.754.754,0,0,1,.971-.452,4.187,4.187,0,0,1,2.278,2.428,4.237,4.237,0,0,1,.3,2.512A2.261,2.261,0,0,1,141,67.293a3.5,3.5,0,0,1-2.947-.469,5.727,5.727,0,0,1-2.663-2.328,5.125,5.125,0,0,1-.2-3.165,4.035,4.035,0,0,1,.536-1.675,3.349,3.349,0,0,1,2.7-1.356,6.029,6.029,0,0,1,2.612.754,12.225,12.225,0,0,1,3.885,3.081,7.134,7.134,0,0,1,1.909,4.672,4.187,4.187,0,0,1-3.215,4.1Z" transform="translate(66.043 23.102)" fill="#231f20"/>
    <path id="Caminho_165" data-name="Caminho 165" d="M166.285,53.981c-.2-.486-4.522-10.215-6.7-10.416s-10.048,2.294-8.976,3.2,6.7,1.139,6.7,1.139a9.847,9.847,0,0,0,0,10.433" transform="translate(76.491 13.153)" fill="#fff"/>
    <path id="Caminho_166" data-name="Caminho 166" d="M157.543,59.4a.787.787,0,0,1-.636-.352,10.3,10.3,0,0,1-.6-10.165c-1.892-.134-4.923-.469-5.878-1.239a.971.971,0,0,1-.3-1.172c.653-1.675,7.921-3.517,9.83-3.349,2.88.268,7.318,10.8,7.352,10.9a.77.77,0,0,1-.419,1,.787.787,0,0,1-1-.435c-.988-2.5-4.739-9.83-6.062-9.947a23.094,23.094,0,0,0-7.787,2.127,29.257,29.257,0,0,0,5.543.687.77.77,0,0,1,.653.419.787.787,0,0,1,0,.77,9.01,9.01,0,0,0,0,9.6.754.754,0,0,1-.218,1.055A.77.77,0,0,1,157.543,59.4Z" transform="translate(76.173 12.857)" fill="#231f20"/>
    <path id="Caminho_167" data-name="Caminho 167" d="M147.465,46.428a8.891,8.891,0,0,0-1.675,1.524,5.024,5.024,0,0,0-.837,4.488,6.113,6.113,0,0,0,2.931,3.567,2.16,2.16,0,0,0,1.423.335,2.411,2.411,0,0,0,.854-.486,17.149,17.149,0,0,0,3.751-4.1,5.794,5.794,0,0,0,1.156-4.12,4.488,4.488,0,0,0-3.249-3.132C150.044,44,148.771,45.407,147.465,46.428Z" transform="translate(72.603 13.723)" fill="#fff"/>
    <path id="Caminho_168" data-name="Caminho 168" d="M149.318,57.418a3.148,3.148,0,0,1-1.524-.469,6.866,6.866,0,0,1-3.349-4.019,5.794,5.794,0,0,1,.971-5.175,9.6,9.6,0,0,1,1.892-1.675h0c.251-.167.486-.368.72-.553a4.605,4.605,0,0,1,4.237-1.49,5.175,5.175,0,0,1,3.768,3.718,6.28,6.28,0,0,1-1.256,4.689,17.634,17.634,0,0,1-3.9,4.287,2.914,2.914,0,0,1-1.172.62ZM148.28,47.37a8.574,8.574,0,0,0-1.675,1.39,4.237,4.237,0,0,0-.687,3.785,5.376,5.376,0,0,0,2.562,3.115,1.323,1.323,0,0,0,.888.251,1.524,1.524,0,0,0,.553-.335,15.809,15.809,0,0,0,3.567-3.9,5.024,5.024,0,0,0,1.055-3.55,3.751,3.751,0,0,0-2.7-2.562c-.938-.285-1.675.268-2.847,1.206-.268.2-.519.419-.787.6Z" transform="translate(72.24 13.434)" fill="#231f20"/>
    <line id="Linha_6" data-name="Linha 6" x1="23.16" y2="21.938" transform="translate(234.671 76.512)" fill="#fff"/>
    <path id="Caminho_169" data-name="Caminho 169" d="M155.4,78.4a.787.787,0,0,1-.553-.234.77.77,0,0,1,0-1.089l23.16-21.938a.77.77,0,0,1,1.089,0,.754.754,0,0,1,0,1.072L155.923,78.2a.787.787,0,0,1-.519.2Z" transform="translate(79.267 20.819)" fill="#231f20"/>
    <path id="Caminho_170" data-name="Caminho 170" d="M254.167,81.555a.737.737,0,0,1-.737-.737V62.4a.737.737,0,0,1,.737-.737h0a.754.754,0,0,1,.754.737V80.818a.737.737,0,0,1-.737.737Z" transform="translate(145.925 25.369)" fill="#231f20"/>
    <path id="Caminho_171" data-name="Caminho 171" d="M255.3,72.1s-3.349,8.373-3,8.373,4.17.737,4.17.737Z" transform="translate(145.146 32.412)" fill="#231f20"/>
    <path id="Caminho_172" data-name="Caminho 172" d="M256.757,82.247h-.151c-1.675-.352-3.651-.7-3.969-.72a.586.586,0,0,1-.62-.268c-.352-.419-.452-.536,2.88-9.093a.743.743,0,0,1,1.423.184l1.156,9.093a.754.754,0,0,1-.218.636.8.8,0,0,1-.5.168Zm-3.266-2.11c.5.084,1.256.218,2.395.452l-.653-5.175c-.754,1.926-1.457,3.718-1.742,4.672Z" transform="translate(144.859 32.145)" fill="#231f20"/>
    <path id="Caminho_173" data-name="Caminho 173" d="M233.47,79.182a5.677,5.677,0,0,1,7.72-1.926,3.819,3.819,0,0,1,1.39,1.44,4.337,4.337,0,0,1,.234,2.947,7.9,7.9,0,0,1-8.557,5.911" transform="translate(132.459 35.361)" fill="#fff"/>
    <path id="Caminho_174" data-name="Caminho 174" d="M235.563,88.674a7.674,7.674,0,0,1-1.072,0,.77.77,0,1,1,.218-1.524,7.184,7.184,0,0,0,7.687-5.325,3.617,3.617,0,0,0-.167-2.428,3.182,3.182,0,0,0-1.122-1.156,5.024,5.024,0,0,0-6.7,1.675.754.754,0,0,1-1.038.285.77.77,0,0,1-.3-1.038,6.313,6.313,0,0,1,3.952-2.9,6.179,6.179,0,0,1,4.84.7,4.739,4.739,0,0,1,1.675,1.675,5.175,5.175,0,0,1,.3,3.467,8.708,8.708,0,0,1-8.273,6.565Z" transform="translate(132.125 35.079)" fill="#231f20"/>
    <path id="Caminho_175" data-name="Caminho 175" d="M258.574,71.674a.871.871,0,0,1-.636-.285c-.134-.167-14.486-16.746-26.124-15.943s-14.938,6.431-14.971,6.5a.837.837,0,0,1-1.457-.821c.151-.268,3.835-6.514,16.311-7.352S258.591,69.6,259.21,70.3a.837.837,0,0,1-.636,1.373Z" transform="translate(120.2 20.027)" fill="#fff"/>
    <path id="Caminho_176" data-name="Caminho 176" d="M371.11,79.991l-45.567,26.476L293.49,51.321,339.727,24.51Z" transform="translate(172.951 0.306)" fill="#fff"/>
    <path id="Caminho_177" data-name="Caminho 177" d="M325.835,107.543a.77.77,0,0,1-.67-.385L293.112,52.012a.8.8,0,0,1,0-.586.737.737,0,0,1,.368-.469l46.254-26.794a.754.754,0,0,1,.569-.084.737.737,0,0,1,.469.368l31.383,55.481a.754.754,0,0,1-.285,1.022L326.22,107.443a.771.771,0,0,1-.385.1ZM294.82,51.895l31.282,53.84,44.261-25.723L339.734,25.871Z" transform="translate(172.659 0)" fill="#231f20"/>
    <path id="Caminho_178" data-name="Caminho 178" d="M324.944,98.431h-.218a.837.837,0,0,1-.5-.385l-27.3-46.89a.82.82,0,0,1,.3-1.139l37.512-21.77a.787.787,0,0,1,.636-.084.8.8,0,0,1,.519.385l27.28,46.89a.854.854,0,0,1-.3,1.156l-37.512,21.77A.921.921,0,0,1,324.944,98.431ZM298.8,50.938l26.443,45.5,36.072-20.95L334.858,29.972Z" transform="translate(175.191 2.748)" fill="#d1d3d4"/>
    <path id="Caminho_179" data-name="Caminho 179" d="M306.574,49.5a.837.837,0,0,1-.419-1.557l18.639-10.835a.844.844,0,1,1,.854,1.457L306.993,49.4A.854.854,0,0,1,306.574,49.5Z" transform="translate(181.219 8.726)" fill="#d1d3d4"/>
    <path id="Caminho_180" data-name="Caminho 180" d="M299,64.933s1.44-6.7,1.675-8.089,5.694-6.9,6.6-5.928-2.931,8.055-2.931,8.055a6.7,6.7,0,0,1,2.06,7.117" transform="translate(176.669 18.044)" fill="#fff"/>
    <path id="Caminho_181" data-name="Caminho 181" d="M306.759,67.2a.452.452,0,0,1-.218,0,.77.77,0,0,1-.519-.955,5.978,5.978,0,0,0-1.792-6.4.737.737,0,0,1-.2-.955,30.975,30.975,0,0,0,2.964-6.95,16.981,16.981,0,0,0-5.208,5.325l-1.758,8.105-1.507-.335s1.457-6.7,1.758-8.089a16.026,16.026,0,0,1,6.581-6.565,1.222,1.222,0,0,1,1.34.285c.3.335,1.239,1.323-2.545,8.373A7.436,7.436,0,0,1,307.5,66.53a.787.787,0,0,1-.737.67Z" transform="translate(176.345 17.703)" fill="#231f20"/>
    <path id="Caminho_182" data-name="Caminho 182" d="M304.529,90.722a.77.77,0,0,1-.67-.385l-14.77-26.794a.77.77,0,1,1,1.34-.737L305.2,89.6a.737.737,0,0,1-.3,1.038A.9.9,0,0,1,304.529,90.722Z" transform="translate(169.884 25.814)" fill="#231f20"/>
    <path id="Caminho_183" data-name="Caminho 183" d="M171.582,151.5a.753.753,0,0,1-.452-.134l-20.615-13.548a.837.837,0,0,1-.251-1.156.854.854,0,0,1,1.172-.251l20.615,13.548a.854.854,0,0,1,.234,1.172.871.871,0,0,1-.7.368Z" transform="translate(76.235 75.711)" fill="#d1d3d4"/>
    <path id="Caminho_184" data-name="Caminho 184" d="M264.34,172.32a.872.872,0,0,1-.352,0,.837.837,0,0,1-.419-1.105l10.048-22.943a.854.854,0,0,1,1.105-.435.837.837,0,0,1,.435,1.105L265.11,171.9a.821.821,0,0,1-.77.419Z" transform="translate(152.716 83.463)" fill="#d1d3d4"/>
  </g>
</svg>
